<svg xmlns="http://www.w3.org/2000/svg" xmlns:xlink="http://www.w3.org/1999/xlink" xml:space="preserve" width="6.82666in" height="6.82666in" style="shape-rendering:geometricPrecision; text-rendering:geometricPrecision; image-rendering:optimizeQuality; fill-rule:evenodd; clip-rule:evenodd" viewBox="0 0 6.82666 6.82666">
 <defs>
  <style type="text/css">
   <![CDATA[
    .fil3 {fill:none}
    .fil2 {fill:#C2E4F8}
    .fil0 {fill:whitesmoke}
    .fil1 {fill:#0A93E2;fill-rule:nonzero}
   ]]>
  </style>
 </defs>
 <g id="Layer_x0020_1">

  <path class="fil0" d="M2.35128 1.74083l-0.647496 0 0 4.0725 3.41909 0 0 -4.8 -2.6916 0 0 0.647496c0,0.0441811 -0.0358189,0.08 -0.08,0.08zm-0.255657 1.66367l2.63542 0c0.0441811,0 0.08,0.0358189 0.08,0.08 0,0.0441811 -0.0358189,0.08 -0.08,0.08l-2.63542 0c-0.0441811,0 -0.08,-0.0358189 -0.08,-0.08 0,-0.0441811 0.0358189,-0.08 0.08,-0.08zm0 0.583343l2.63542 0c0.0441811,0 0.08,0.0358189 0.08,0.08 0,0.0441811 -0.0358189,0.08 -0.08,0.08l-2.63542 0c-0.0441811,0 -0.08,-0.0358189 -0.08,-0.08 0,-0.0441811 0.0358189,-0.08 0.08,-0.08zm0 0.583343l2.63542 0c0.0441811,0 0.08,0.0358189 0.08,0.08 0,0.0441811 -0.0358189,0.08 -0.08,0.08l-2.63542 0c-0.0441811,0 -0.08,-0.0358189 -0.08,-0.08 0,-0.0441811 0.0358189,-0.08 0.08,-0.08zm-0.08 0.663343c0,-0.0441811 0.0358189,-0.08 0.08,-0.08l1.34458 0c0.0441811,0 0.08,0.0358189 0.08,0.08 0,0.0441811 -0.0358189,0.08 -0.08,0.08l-1.34458 0c-0.0441811,0 -0.08,-0.0358189 -0.08,-0.08zm1.61 -3.45166c0,-0.102504 0.0415591,-0.195315 0.108736,-0.262492 0.067185,-0.0671772 0.159996,-0.108736 0.262492,-0.108736 0.102504,0 0.195315,0.0415591 0.262492,0.108736 0.0671772,0.0671772 0.108736,0.159988 0.108736,0.262492 0,0.102496 -0.0415591,0.195307 -0.108736,0.262492 -0.0671772,0.0671772 -0.159988,0.108736 -0.262492,0.108736 -0.102496,0 -0.195307,-0.0415591 -0.262492,-0.108736 -0.0671772,-0.067185 -0.108736,-0.159996 -0.108736,-0.262492zm-0.156921 0.895673c0.0234567,-0.142437 0.114602,-0.264016 0.242402,-0.328378 0.134047,0.207685 0.437469,0.207661 0.571512,-1.5748e-005 0.0646575,0.0325669 0.120469,0.0801811 0.162685,0.138134 0.040189,0.0551654 0.068122,0.119945 0.0797008,0.19026l-1.0563 0zm1.19718 0.13513l0 0zm-0.0615 -0.061752l-0.0483661 -0.0485669 1.1811e-005 -6.29921e-005 0.0483543 0.0486299z" style="fill: whitesmoke;"/>
  <path class="fil1" d="M5.12288 1.01333l-2.73847 0 -0.680622 0.680622 0 4.11938 3.41909 0 0 -4.8zm-2.7716 -0.16l2.8516 0c0.0441811,0 0.08,0.0358189 0.08,0.08l0 4.96c0,0.0441811 -0.0358189,0.08 -0.08,0.08l-3.57909 0c-0.0441811,0 -0.08,-0.0358189 -0.08,-0.08l0 -4.2325 3.93701e-006 0c0,-0.0204724 0.00780709,-0.0409488 0.0234291,-0.0565669l3.93701e-006 3.93701e-006 0.727157 -0.727157c0.0145039,-0.0146772 0.0346378,-0.0237756 0.0569016,-0.0237756z" style="fill: #0A93E2; fill-rule: nonzero;"/>
  <path class="fil1" d="M1.81691 1.58083l0.45437 0 0 -0.45437 -0.45437 0.45437zm0.53437 0.16l-0.727496 0 0 -3.93701e-006c-0.0204724,0 -0.0409488,-0.00781102 -0.0565669,-0.0234291 -0.0312402,-0.0312402 -0.0312402,-0.0818937 0,-0.113134l3.93701e-006 3.93701e-006 0.727157 -0.727157c0.0145039,-0.0146772 0.0346378,-0.0237756 0.0569016,-0.0237756 0.0441811,0 0.08,0.0358189 0.08,0.08l0 0.727496c0,0.0441811 -0.0358189,0.08 -0.08,0.08z" style="fill: #0A93E2; fill-rule: nonzero;"/>
  <path class="fil1" d="M4.27359 2.17384c0.121421,0.0406024 0.226224,0.118811 0.300449,0.220697 0.0734764,0.100843 0.116937,0.224465 0.116937,0.357386l0 0.00133071c0,0.0232795 -0.0096063,0.0445827 -0.0251496,0.0601417l0.00015748 0.00015748 -0.00011811 0.000114173 7.87402e-006 7.87402e-006c-0.000673228,0.000669291 -0.00135827,0.00131496 -0.00204724,0.00195669l-0.000834646 0.000771654 -0.000267717 0.000240157c-0.0151142,0.0136102 -0.035122,0.0219016 -0.0570433,0.0219016l-1.21768 0c-0.0235394,0 -0.0448701,-0.00955906 -0.0603031,-0.0249921l-3.93701e-006 3.93701e-006c-0.00523228,-0.00523228 -0.00958661,-0.0110118 -0.0130669,-0.0171535 -0.00757874,-0.0127244 -0.0119213,-0.0274921 -0.0119213,-0.0431496l0 -0.00133071c0,-0.132921 0.0434606,-0.256531 0.116937,-0.357374 0.0752402,-0.103268 0.181894,-0.182217 0.305429,-0.222331l0.024689 0.075937 -0.0247087 -0.0760906c0.0420236,-0.0136457 0.0871535,0.00935827 0.100799,0.0513819 0.000590551,0.00181496 0.0011063,0.00363386 0.00155906,0.00545669 0.0125394,0.033748 0.0350276,0.0628031 0.0639449,0.0836457 0.0294055,0.0211929 0.0658189,0.0336811 0.105484,0.0336811 0.0396693,0 0.0760945,-0.0124921 0.1055,-0.033689 0.0305472,-0.0220157 0.0539173,-0.0531969 0.0659646,-0.0894055l0.075626 0.025 -0.0759055 -0.0252598c0.0139488,-0.0419213 0.0592441,-0.0645945 0.101165,-0.0506457 0.00149213,0.000496063 0.00295669,0.00103543 0.00439764,0.00161024zm0.171701 0.314445c-0.0422165,-0.0579528 -0.0980276,-0.105567 -0.162685,-0.138134 -0.0231063,0.0357992 -0.0527126,0.0669528 -0.0871378,0.0917677 -0.0561417,0.0404646 -0.124768,0.064311 -0.198626,0.064311 -0.0738543,0 -0.142469,-0.0238425 -0.19861,-0.0643031 -0.0344252,-0.024811 -0.0640315,-0.0559606 -0.0871378,-0.0917598 -0.0646654,0.0325669 -0.120476,0.0801811 -0.162701,0.13813 -0.040189,0.0551614 -0.068122,0.119941 -0.0797008,0.190248l1.0563 0c-0.0115787,-0.070315 -0.0395118,-0.135094 -0.0797008,-0.19026zm0.159091 0.263638l-7.87402e-006 0 0.00130709 0.00131102 0 -3.93701e-006 -0.00129921 -0.00130709zm0.00132283 0.00133071l-3.93701e-006 0 0.00372047 0.00373622 -0.00371654 -0.00373622zm-0.00133071 -0.00133071l7.87402e-006 0 -0.0483622 -0.0486299 -1.1811e-005 6.29921e-005 0.0483661 0.0485669zm0.00133071 0.00133071l-2.3622e-005 -2.3622e-005 0 3.93701e-006 1.9685e-005 1.9685e-005 3.93701e-006 0z" style="fill: #0A93E2; fill-rule: nonzero;"/>
  <path class="fil1" d="M3.99685 1.41164c0.102504,0 0.195315,0.0415591 0.262492,0.108736 0.0671772,0.0671772 0.108736,0.159988 0.108736,0.262492 0,0.102496 -0.0415591,0.195307 -0.108736,0.262492 -0.0671772,0.0671772 -0.159988,0.108736 -0.262492,0.108736 -0.102496,0 -0.195307,-0.0415591 -0.262492,-0.108736 -0.0671772,-0.067185 -0.108736,-0.159996 -0.108736,-0.262492 0,-0.102504 0.0415591,-0.195315 0.108736,-0.262492 0.067185,-0.0671772 0.159996,-0.108736 0.262492,-0.108736zm0.149366 0.221862c-0.0382165,-0.0382165 -0.0910315,-0.0618622 -0.149366,-0.0618622 -0.0583307,0 -0.111146,0.0236457 -0.149366,0.0618622 -0.0382165,0.0382165 -0.0618622,0.0910315 -0.0618622,0.149366 0,0.0583307 0.0236457,0.111146 0.0618622,0.149366 0.0382205,0.0382165 0.0910354,0.0618622 0.149366,0.0618622 0.0583346,0 0.11115,-0.0236457 0.149366,-0.0618622 0.0382165,-0.0382205 0.0618622,-0.0910354 0.0618622,-0.149366 0,-0.0583346 -0.0236457,-0.11115 -0.0618622,-0.149366z" style="fill: #0A93E2; fill-rule: nonzero;"/>
  <path class="fil1" d="M2.09562 3.4045c-0.0441811,0 -0.08,0.0358189 -0.08,0.08 0,0.0441811 0.0358189,0.08 0.08,0.08l2.63542 0c0.0441811,0 0.08,-0.0358189 0.08,-0.08 0,-0.0441811 -0.0358189,-0.08 -0.08,-0.08l-2.63542 0z" style="fill: #0A93E2; fill-rule: nonzero;"/>
  <path class="fil1" d="M2.09562 3.98784c-0.0441811,0 -0.08,0.0358189 -0.08,0.08 0,0.0441811 0.0358189,0.08 0.08,0.08l2.63542 0c0.0441811,0 0.08,-0.0358189 0.08,-0.08 0,-0.0441811 -0.0358189,-0.08 -0.08,-0.08l-2.63542 0z" style="fill: #0A93E2; fill-rule: nonzero;"/>
  <path class="fil1" d="M2.09562 4.57119c-0.0441811,0 -0.08,0.0358189 -0.08,0.08 0,0.0441811 0.0358189,0.08 0.08,0.08l2.63542 0c0.0441811,0 0.08,-0.0358189 0.08,-0.08 0,-0.0441811 -0.0358189,-0.08 -0.08,-0.08l-2.63542 0z" style="fill: #0A93E2; fill-rule: nonzero;"/>
  <path class="fil1" d="M2.09562 5.15453c-0.0441811,0 -0.08,0.0358189 -0.08,0.08 0,0.0441811 0.0358189,0.08 0.08,0.08l1.34458 0c0.0441811,0 0.08,-0.0358189 0.08,-0.08 0,-0.0441811 -0.0358189,-0.08 -0.08,-0.08l-1.34458 0z" style="fill: #0A93E2; fill-rule: nonzero;"/>
  <polygon class="fil2" points="1.81691,1.58083 2.27128,1.58083 2.27128,1.12646 " style="fill: #C2E4F8;"/>
  <path class="fil2" d="M3.84748 1.6335c-0.0382165,0.0382165 -0.0618622,0.0910315 -0.0618622,0.149366 0,0.0583307 0.0236457,0.111146 0.0618622,0.149366 0.0382205,0.0382165 0.0910354,0.0618622 0.149366,0.0618622 0.0583346,0 0.11115,-0.0236457 0.149366,-0.0618622 0.0382165,-0.0382205 0.0618622,-0.0910354 0.0618622,-0.149366 0,-0.0583346 -0.0236457,-0.11115 -0.0618622,-0.149366 -0.0382165,-0.0382165 -0.0910315,-0.0618622 -0.149366,-0.0618622 -0.0583307,0 -0.111146,0.0236457 -0.149366,0.0618622z" style="fill: #C2E4F8;"/>
  <path class="fil2" d="M4.28261 2.35015c-0.134043,0.207677 -0.437465,0.207701 -0.571512,1.5748e-005 -0.127799,0.0643622 -0.218945,0.185941 -0.242402,0.328378l1.0563 0c-0.0115787,-0.070315 -0.0395118,-0.135094 -0.0797008,-0.19026 -0.0422165,-0.0579528 -0.0980276,-0.105567 -0.162685,-0.138134z" style="fill: #C2E4F8;"/>
 </g>
 <rect class="fil3" width="6.82666" height="6.82666" style="fill: none;"/>

	<metadata>
		<rdf:RDF xmlns:rdf="http://www.w3.org/1999/02/22-rdf-syntax-ns#" xmlns:rdfs="http://www.w3.org/2000/01/rdf-schema#" xmlns:dc="http://purl.org/dc/elements/1.1/">
			<rdf:Description about="https://iconscout.com/legal#licenses" dc:title="5 - Portfolio" dc:description="5 - Portfolio" dc:publisher="Iconscout" dc:date="2017-05-16" dc:format="image/svg+xml" dc:language="en">
				<dc:creator>
					<rdf:Bag>
						<rdf:li>Virtual Design</rdf:li>
					</rdf:Bag>
				</dc:creator>
			</rdf:Description>
		</rdf:RDF>
    </metadata></svg>
